<?xml version="1.0" encoding="UTF-8"?>
<svg width="86px" height="81px" viewBox="0 0 86 81" version="1.1" xmlns="http://www.w3.org/2000/svg" xmlns:xlink="http://www.w3.org/1999/xlink">
    <!-- Generator: Sketch 56.3 (81716) - https://sketch.com -->
    <title>Group 69</title>
    <desc>Created with Sketch.</desc>
    <defs>
        <polygon id="path-1" points="0.0179418956 0.929600227 4.674 0.929600227 4.674 4.1229 0.0179418956 4.1229"></polygon>
        <polygon id="path-3" points="0 0.930158817 4.6562581 0.930158817 4.6562581 4.1226 0 4.1226"></polygon>
    </defs>
    <g id="Page-1" stroke="none" stroke-width="1" fill="none" fill-rule="evenodd">
        <g id="Scroll" transform="translate(-193.000000, -2348.000000)">
            <g id="Group-39" transform="translate(90.000000, 2321.000000)">
                <g id="Group-37" transform="translate(103.000000, 27.000000)">
                    <g id="Group-69" transform="translate(0.000000, -0.000000)">
                        <g id="Brainstrom" transform="translate(0.000000, -0.000000)">
                            <path d="M44.2965783,80.140952 C67.2163954,80.140952 85.3857496,64.4198171 85.3857496,41.5 C85.3857496,18.5801829 62.9197812,3.12638804e-13 39.9999641,3.12638804e-13 C17.080147,3.12638804e-13 -5.68434189e-14,12.5198098 -5.68434189e-14,35.439627 C-5.68434189e-14,58.3594441 21.3767612,80.140952 44.2965783,80.140952 Z" id="Oval" fill="#FFFFFF" opacity="0.0922154018"></path>
                            <g id="Group-21" transform="translate(25.000000, 14.000000)">
                                <path d="M26.1995,17.7803 C25.5915,13.8963 22.3045,10.7373 18.3845,10.2683 C18.0065,10.2223 17.6295,10.2003 17.2565,10.2003 C15.0415,10.2003 12.9495,10.9913 11.2715,12.4803 C9.3345,14.1993 8.2245,16.6653 8.2245,19.2463 C8.2245,21.4003 8.9945,23.4873 10.3945,25.1233 C12.4915,27.5753 13.6455,30.8783 13.6455,34.4243 C13.6455,34.5303 13.7325,34.6173 13.8385,34.6173 L20.6995,34.6173 C20.8065,34.6173 20.8935,34.5313 20.8935,34.4253 C20.8935,31.0863 22.1105,27.7563 24.4135,24.7943 C25.9615,22.8023 26.5955,20.3123 26.1995,17.7803" id="Fill-1" fill="#FFFFFF"></path>
                                <path d="M20.7,34.6172 L13.839,34.6172 C13.732,34.6172 13.645,34.5302 13.645,34.4242 C13.645,30.8782 12.491,27.5752 10.394,25.1232 C8.995,23.4872 8.224,21.4002 8.224,19.2462 C8.224,16.6652 9.335,14.1992 11.271,12.4802 C12.95,10.9912 15.042,10.2002 17.257,10.2002 C17.629,10.2002 18.006,10.2222 18.385,10.2682 C22.305,10.7372 25.592,13.8962 26.2,17.7802 C26.596,20.3122 25.962,22.8032 24.413,24.7942 C22.111,27.7562 20.893,31.0862 20.893,34.4252 C20.893,34.5312 20.806,34.6172 20.7,34.6172 M18.622,8.2822 C15.467,7.9062 12.304,8.8912 9.944,10.9842 C7.58,13.0822 6.224,16.0942 6.224,19.2462 C6.224,21.8762 7.166,24.4252 8.875,26.4242 C10.661,28.5132 11.645,31.3542 11.645,34.4252 C11.645,35.6342 12.629,36.6172 13.839,36.6172 L20.7,36.6172 C21.909,36.6172 22.893,35.6332 22.893,34.4232 C22.893,31.5342 23.965,28.6292 25.992,26.0212 C27.883,23.5902 28.658,20.5542 28.175,17.4712 C27.42,12.6432 23.492,8.8652 18.622,8.2822" id="Fill-3" fill="#002874"></path>
                                <path d="M20.6883,37.7598 L13.8513,37.7598 C13.2983,37.7598 12.8513,38.2068 12.8513,38.7598 C12.8513,39.3128 13.2983,39.7598 13.8513,39.7598 L20.6883,39.7598 C21.2403,39.7598 21.6883,39.3128 21.6883,38.7598 C21.6883,38.2068 21.2403,37.7598 20.6883,37.7598" id="Fill-5" fill="#002874"></path>
                                <path d="M19.3714,40.7285 L15.1674,40.7285 C14.6154,40.7285 14.1674,41.1755 14.1674,41.7285 C14.1674,42.2815 14.6154,42.7285 15.1674,42.7285 L19.3714,42.7285 C19.9234,42.7285 20.3714,42.2815 20.3714,41.7285 C20.3714,41.1755 19.9234,40.7285 19.3714,40.7285" id="Fill-7" fill="#002874"></path>
                                <path d="M30.9085,12.2988 C31.1075,12.2988 31.3095,12.2388 31.4845,12.1148 L33.8625,10.4358 C34.3135,10.1168 34.4205,9.4928 34.1025,9.0418 C33.7835,8.5918 33.1595,8.4838 32.7085,8.8028 L30.3305,10.4828 C29.8795,10.8008 29.7725,11.4248 30.0905,11.8758 C30.2855,12.1518 30.5945,12.2988 30.9085,12.2988" id="Fill-9" fill="#00B7F3"></path>
                                <g id="Group-13" transform="translate(30.000000, 23.728500)">
                                    <mask id="mask-2" fill="white">
                                        <use xlink:href="#path-1"></use>
                                    </mask>
                                    <g id="Clip-12"></g>
                                    <path d="M4.0838,2.2109 L1.4278,1.0189 C0.9238,0.7899 0.3328,1.0169 0.1058,1.5219 C-0.1202,2.0249 0.1048,2.6169 0.6088,2.8429 L3.2648,4.0349 C3.3978,4.0949 3.5368,4.1229 3.6738,4.1229 C4.0558,4.1229 4.4198,3.9029 4.5858,3.5319 C4.8128,3.0279 4.5878,2.4369 4.0838,2.2109" id="Fill-11" fill="#00B7F3" mask="url(#mask-2)"></path>
                                </g>
                                <path d="M1.9661,8.8027 C1.5151,8.4837 0.8901,8.5917 0.5721,9.0417 C0.2541,9.4927 0.3611,10.1167 0.8121,10.4357 L3.1901,12.1157 C3.3651,12.2397 3.5671,12.2987 3.7661,12.2987 C4.0801,12.2987 4.3891,12.1517 4.5841,11.8757 C4.9021,11.4247 4.7951,10.8007 4.3441,10.4827 L1.9661,8.8027 Z" id="Fill-14" fill="#00B7F3"></path>
                                <g id="Group-18" transform="translate(0.000000, 23.728500)">
                                    <mask id="mask-4" fill="white">
                                        <use xlink:href="#path-3"></use>
                                    </mask>
                                    <g id="Clip-17"></g>
                                    <path d="M3.2464,1.0186 L0.5904,2.2106 C0.0864,2.4366 -0.1386,3.0286 0.0884,3.5326 C0.2544,3.9036 0.6194,4.1226 1.0004,4.1226 C1.1384,4.1226 1.2774,4.0946 1.4104,4.0356 L4.0654,2.8426 C4.5694,2.6176 4.7944,2.0256 4.5684,1.5216 C4.3414,1.0166 3.7494,0.7916 3.2464,1.0186" id="Fill-16" fill="#00B7F3" mask="url(#mask-4)"></path>
                                </g>
                                <path d="M17.2693,4.9111 C17.8213,4.9111 18.2693,4.4641 18.2693,3.9111 L18.2693,1.0001 C18.2693,0.4471 17.8213,0.0001 17.2693,0.0001 C16.7173,0.0001 16.2693,0.4471 16.2693,1.0001 L16.2693,3.9111 C16.2693,4.4641 16.7173,4.9111 17.2693,4.9111" id="Fill-19" fill="#00B7F3"></path>
                            </g>
                        </g>
                    </g>
                </g>
            </g>
        </g>
    </g>
</svg>