<?xml version="1.0" encoding="UTF-8"?>
<svg width="113px" height="39px" viewBox="0 0 113 39" version="1.1" xmlns="http://www.w3.org/2000/svg" xmlns:xlink="http://www.w3.org/1999/xlink">
    <!-- Generator: Sketch 56.3 (81716) - https://sketch.com -->
    <title>education logo</title>
    <desc>Created with Sketch.</desc>
    <g id="Page-1" stroke="none" stroke-width="1" fill="none" fill-rule="evenodd">
        <g id="Explore-Landing" transform="translate(-124.000000, -17.000000)">
            <g id="Group-50">
                <g id="education-logo" transform="translate(124.000000, 16.000000)">
                    <path d="M44.05,33.91 C43.5707404,33.8713688 43.1055503,34.0831627 42.82,34.47 C42.5434546,34.9559094 42.4148558,35.5120124 42.45,36.07 C42.45,37.53 42.98,38.25 44.06,38.25 C45.14,38.25 45.65,37.53 45.65,36.07 C45.65,34.61 45.12,33.91 44.05,33.91 Z" id="Path"></path>
                    <ellipse id="Oval" cx="13.5" cy="4.45" rx="1.91" ry="1.93"></ellipse>
                    <path d="M60.24,36.17 C60.0820083,36.3950049 60.0012995,36.6652039 60.01,36.94 C60.0003081,37.2858393 60.1428806,37.6185084 60.4,37.85 C60.7015948,38.0940863 61.0824576,38.2186676 61.47,38.2 C62.1167372,38.2131565 62.7472742,37.9970736 63.25,37.59 L61.07,35.44 C60.7480399,35.626412 60.4659943,35.8744762 60.24,36.17 L60.24,36.17 Z" id="Path"></path>
                    <path d="M79.44,36.58 C79.1592123,36.7744284 78.9970701,37.0987128 79.01,37.44 C78.9979539,37.682225 79.0887429,37.9182763 79.26,38.09 C79.4763073,38.2577549 79.746973,38.3396669 80.02,38.32 C80.4486233,38.3416865 80.8686696,38.1944908 81.19,37.91 C81.4940171,37.6111111 81.6543756,37.1956369 81.63,36.77 L81.63,36.23 L80.82,36.23 C80.3371962,36.2230341 79.8611253,36.3437767 79.44,36.58 Z" id="Path"></path>
                    <path d="M23.84,22.29 L19.38,24.51 L25.49,23 L25.49,9.94 L24.27,10.34 L24.27,21.61 C24.2682347,21.9001688 24.1013948,22.1640087 23.84,22.29 L23.84,22.29 Z" id="Path"></path>
                    <path d="M8.86,33.91 C8.42093024,33.8916404 8.0054206,34.1089253 7.77,34.48 C7.48563399,34.9777249 7.35351302,35.5479312 7.39,36.12 C7.35205036,36.6750356 7.48090055,37.2287431 7.76,37.71 C8.00393404,38.0798735 8.42794563,38.2899693 8.87,38.26 C9.31981885,38.3019801 9.76350241,38.1319014 10.07,37.8 C10.3603296,37.3522865 10.4972109,36.8223101 10.46,36.29 L10.46,36.11 C10.5115323,35.5164536 10.3750961,34.9217317 10.07,34.41 C9.77012965,34.0590149 9.32016249,33.8730781 8.86,33.91 L8.86,33.91 Z" id="Path"></path>
                    <path d="M61.34,34.05 C61.6784713,33.8793319 61.9833587,33.6489725 62.24,33.37 C62.4162476,33.1764815 62.5095943,32.9215733 62.5,32.66 C62.5076021,32.4381416 62.4203123,32.2235542 62.26,32.07 C62.0734221,31.9200366 61.8392403,31.841976 61.6,31.85 C61.3402494,31.8383371 61.0848856,31.9199117 60.88,32.08 C60.7053306,32.2376373 60.6100155,32.4649272 60.62,32.7 C60.6193893,32.9398542 60.6851481,33.1752015 60.81,33.38 C60.9626134,33.6213502 61.1402632,33.8459264 61.34,34.05 L61.34,34.05 Z" id="Path"></path>
                    <path d="M54.34,17.38 L52.85,17.38 C52.6325042,17.3746305 52.4217898,17.4559143 52.2642449,17.6059571 C52.1066999,17.7559999 52.0152401,17.9625011 52.01,18.18 L52.01,18.18 L52.01,18.75 L52.01,18.75 L52.01,21.27 C52.0152401,21.4874989 52.1066999,21.6940001 52.2642449,21.8440429 C52.4217898,21.9940857 52.6325042,22.0753695 52.85,22.07 L54.34,22.07 C54.6972608,22.0779997 55.0195376,21.8564344 55.14,21.52 L55.14,21.52 C55.1502815,21.4840541 55.1502815,21.4459459 55.14,21.41 C55.1448167,21.3634576 55.1448167,21.3165424 55.14,21.27 L55.14,18.18 C55.1245325,17.74474 54.77526,17.3954675 54.34,17.38 L54.34,17.38 Z" id="Path"></path>
                    <path d="M2.74,21.61 L2.74,10.35 L1.52,10 L1.52,23 L7.59,24.49 L3.16,22.28 C2.90240695,22.1564628 2.73893276,21.8956825 2.74,21.61 Z" id="Path"></path>
                    <path d="M99.1,33.83 C98.7243421,33.8226632 98.3623865,33.971065 98.1,34.24 C97.8228887,34.5731173 97.6614583,34.9872213 97.64,35.42 L100.5,35.42 C100.526865,34.9913703 100.395175,34.5678273 100.13,34.23 C99.861674,33.9524696 99.4853059,33.8063072 99.1,33.83 L99.1,33.83 Z" id="Path"></path>
                    <path d="M39.46,10.82 L37.19,10.82 L37.19,15.3 L39.46,15.3 C39.6827819,15.3 39.8964391,15.2115003 40.0539697,15.0539697 C40.2115003,14.8964391 40.3,14.6827819 40.3,14.46 L40.3,11.67 C40.3026729,11.4454906 40.2153546,11.2292553 40.0575334,11.0695553 C39.8997122,10.9098552 39.6845253,10.82 39.46,10.82 L39.46,10.82 Z" id="Path"></path>
                    <path d="M28.21,36.58 C27.9198054,36.7661234 27.754782,37.0961703 27.78,37.44 C27.7626174,37.6830496 27.8542292,37.9212402 28.03,38.09 C28.2432371,38.2562355 28.5102293,38.3381132 28.78,38.32 C29.2259826,38.3588932 29.6680217,38.210339 30,37.91 C30.3111169,37.6151857 30.4758617,37.1978322 30.45,36.77 L30.45,36.23 L29.64,36.23 C29.1403296,36.214027 28.6458113,36.3350629 28.21,36.58 Z" id="Path"></path>
                    <path d="M92.37,33.83 C91.9943421,33.8226632 91.6323865,33.971065 91.37,34.24 C91.0869273,34.5695703 90.9246691,34.9857978 90.91,35.42 L93.77,35.42 C93.7922932,34.9919311 93.6610914,34.5699577 93.4,34.23 C93.1309183,33.9536093 92.7550943,33.8076583 92.37,33.83 Z" id="Path"></path>
                    <path d="M111.7,26.79 C112.137918,26.7845256 112.490034,26.4279518 112.49,25.99 L112.49,10.91 C112.51991,10.2620661 112.428335,9.61425536 112.22,9 C111.477888,6.83774748 109.446056,5.38414434 107.16,5.38 L107.16,5.38 C105.685941,5.35683971 104.267653,5.94296888 103.24,7 C102.2363,5.93947897 100.840177,5.33907375 99.38,5.33997816 L99.38,5.33997816 C98.0928097,5.33630293 96.848433,5.80205535 95.88,6.65 L95.88,6.27 C95.8538421,5.85716177 95.5136426,5.53440841 95.1,5.53 L91.46,5.53 C91.2487348,5.52998307 91.0462647,5.61458629 90.8978202,5.76490992 C90.7493756,5.91523354 90.6673258,6.11875172 90.6699366,6.33 L90.6699366,26 C90.6673258,26.2112483 90.7493756,26.4147665 90.8978202,26.5650901 C91.0462647,26.7154137 91.2487348,26.8000002 91.46,26.8000002 L95.05,26.8000002 C95.4446016,26.7938756 95.7757833,26.5009072 95.83,26.11 L95.83,11.85 C95.8795329,11.1918997 96.4108841,10.6734037 97.07,10.64 L97.73,10.64 C98.0801983,10.6477062 98.4124678,10.7964091 98.6515394,11.0524227 C98.890611,11.3084364 99.0162517,11.6500942 99,12 L99,26 C98.9973258,26.2112483 99.0793756,26.4147665 99.2278202,26.5650901 C99.3762647,26.7154137 99.5787348,26.8000002 99.79,26.8000002 L103.38,26.8000002 C103.804853,26.8003064 104.153866,26.4645464 104.17,26.04 L104.17,12 C104.161587,11.547481 104.383875,11.1217428 104.76,10.87 C104.957205,10.7406853 105.184647,10.6648714 105.42,10.65 L106.08,10.65 C106.781408,10.7030587 107.317991,11.2968182 107.3,12 L107.3,26 C107.297326,26.2112483 107.379376,26.4147665 107.52782,26.5650901 C107.676265,26.7154137 107.878735,26.8000002 108.09,26.8000002 L111.7,26.79 Z" id="Path" fill="#00BCF1" fill-rule="nonzero"></path>
                    <path d="M87.93,5.58 L85.88,5.58 L85.88,2.23 L85.88,2.23 C85.8826704,2.03638664 85.8083094,1.84964424 85.6732794,1.71086333 C85.5382493,1.57208242 85.3536139,1.49263408 85.16,1.49 L85,1.51 C82.73,2.14 83.18,5.31 79,5.58 L78.6,5.58 C78.5403787,5.57046652 78.4796213,5.57046652 78.42,5.58 L78.42,5.58 C78.0584328,5.65967145 77.8006994,5.97975966 77.8,6.35 L77.8,10 C77.8,10.4418278 78.1581722,10.8 78.6,10.8 L80.76,10.8 L80.76,26.14 C80.757331,26.349526 80.8380138,26.5515288 80.9842958,26.7015616 C81.1305778,26.8515944 81.3304736,26.9373646 81.54,26.94 L85.09,26.94 C85.2995264,26.9373646 85.4994222,26.8515944 85.6457042,26.7015616 C85.7919862,26.5515288 85.872669,26.349526 85.87,26.14 L85.87,10.8 L87.87,10.8 C88.3118278,10.8 88.6700032,10.4418278 88.6700032,10 L88.6700032,6.38 C88.6711812,5.96058107 88.3482394,5.61145488 87.93,5.58 Z" id="Path" fill="#00BCF1" fill-rule="nonzero"></path>
                    <path d="M67.57,19.92 L70,19.92 C70.4244884,19.9708853 70.743039,20.3324834 70.74,20.76 C70.7392609,21.1825179 70.4282869,21.540351 70.01,21.6 L69.95,21.6 L64.7,21.6 C64.4887348,21.5999831 64.2862647,21.6845863 64.1378202,21.8349099 C63.9893756,21.9852335 63.9073258,22.1887517 63.91,22.4 L63.91,26.01 C63.9099658,26.4479518 64.2620824,26.8045256 64.7,26.81 L70.57,26.81 C71.9952152,26.861599 73.3771485,26.315257 74.3817827,25.3030263 C75.3864169,24.2907956 75.9223335,22.9047861 75.86,21.48 L75.86,6.38 C75.8600342,5.94204816 75.5079176,5.5854744 75.07,5.58 L71.44,5.58 C71.2287348,5.58 71.0262647,5.66458629 70.8778202,5.81490992 C70.7293756,5.96523354 70.6473258,6.16875172 70.65,6.38 L70.65,13.87 C70.6445233,14.3300092 70.2700418,14.7000326 69.81,14.7 L68.3,14.7 C67.8344679,14.6945228 67.4599678,14.3155644 67.46,13.85 L67.46,6.38 C67.4600342,5.94204816 67.1079176,5.5854744 66.67,5.58 L63.07,5.58 C62.8587348,5.58 62.6562647,5.66458629 62.5078202,5.81490992 C62.3593756,5.96523354 62.2773258,6.16875172 62.28,6.38 L62.28,14.58 C62.2147878,16.0064815 62.7494297,17.3951756 63.7543973,18.409642 C64.759365,19.4241084 66.1429682,19.9717902 67.57,19.92 Z" id="Path" fill="#002E6E" fill-rule="nonzero"></path>
                    <path d="M45.49,15.61 L45.49,10.51 C45.5616592,9.1923612 45.0737218,7.90570191 44.1463638,6.96691855 C43.2190058,6.0281352 41.9384175,5.52447993 40.62,5.58 L32.78,5.58 C32.3476053,5.58547379 31.9999654,5.93757064 32,6.37 L32,26 C31.988382,26.4196698 32.3110226,26.7732486 32.73,26.8 L36.38,26.8 C36.5912652,26.8 36.7937353,26.7154137 36.9421798,26.5650901 C37.0906244,26.4147665 37.1726742,26.2112483 37.17,26 L37.17,20.5 L40.6,20.5 C41.9153695,20.5635738 43.1964411,20.068826 44.1276335,19.1376335 C45.058826,18.2064411 45.5535738,16.9253695 45.49,15.61 Z M40.3,12.21 L40.3,14.45 C40.3,14.6727819 40.2115003,14.8864391 40.0539697,15.0439697 C39.8964391,15.2015003 39.6827819,15.29 39.46,15.29 L37.19,15.29 L37.19,10.82 L39.46,10.82 C39.6845253,10.82 39.8997122,10.9098552 40.0575334,11.0695553 C40.2153546,11.2292553 40.3026729,11.4454906 40.3,11.67 L40.3,12.21 Z" id="Shape" fill="#002E6E" fill-rule="nonzero"></path>
                    <path d="M60.39,24.76 L60.39,11 C60.39,7.67 58.68,5.57 54.62,5.57 L49.62,5.57 C49.4140628,5.56190481 49.2134757,5.63670441 49.0631208,5.77766214 C48.9127658,5.91861987 48.8251941,6.11396917 48.82,6.32 L48.82,9.75 C48.8278126,9.96752744 48.9217921,10.1730232 49.0812308,10.3212074 C49.2406694,10.4693916 49.4524832,10.5481037 49.67,10.54 L54.41,10.54 C54.7991777,10.5960901 55.0955972,10.917559 55.12,11.31 L55.12,11.78 C55.0949906,12.159258 54.806585,12.4685625 54.43,12.52 L52.1,12.52 C50.7143911,12.4227647 49.3507785,12.9063021 48.3359617,13.854729 C47.3211449,14.8031559 46.7465924,16.1309877 46.75,17.52 L46.75,21.73 C46.6672449,23.0797553 47.1673962,24.4001771 48.1236095,25.3563905 C49.0798229,26.3126038 50.4002447,26.8127551 51.75,26.73 L58.25,26.73 C59.3842792,26.7751295 60.3413023,25.8941316 60.39,24.76 Z M55.19,20.71 L55.19,21.27 C55.1948167,21.3165424 55.1948167,21.3634576 55.19,21.41 C55.2002815,21.4459459 55.2002815,21.4840541 55.19,21.52 L55.19,21.52 C55.0695376,21.8564344 54.7472608,22.0779997 54.39,22.07 L52.85,22.07 C52.6325042,22.0753695 52.4217898,21.9940857 52.2642449,21.8440429 C52.1066999,21.6940001 52.0152401,21.4874989 52.01,21.27 L52.01,18.75 L52.01,18.75 L52.01,18.18 L52.01,18.18 C52.0152401,17.9625011 52.1066999,17.7559999 52.2642449,17.6059571 C52.4217898,17.4559143 52.6325042,17.3746305 52.85,17.38 L54.34,17.38 C54.7946618,17.3687488 55.1737006,17.7254912 55.19,18.18 L55.19,20.71 Z" id="Shape" fill="#002E6E" fill-rule="nonzero"></path>
                    <path d="M27.0000202,23.64 L27.0000202,8.9 C27.0018074,8.65327882 26.8821542,8.42145065 26.68,8.28 C26.4826792,8.1398101 26.2314562,8.09917107 25.9999959,8.17 L24.26,8.74 L24.26,10.34 L25.48,9.94 L25.48,23 L19.37,24.47 L13.76,27.27 C13.653524,27.3201953 13.5376869,27.3474511 13.42,27.35 C13.3006742,27.3508127 13.1832966,27.3197421 13.08,27.26 L7.58,24.49 L1.52,23 L1.52,10 L2.74,10.4 L2.74,8.75 L0.999995924,8.18 C0.767218923,8.10133092 0.51087004,8.13848293 0.31,8.28 C0.114225252,8.42583949 -0.000793257329,8.65587651 -4.07649512e-06,8.9 L-4.07649512e-06,23.64 C0.00281491934,23.9897712 0.241030442,24.2937014 0.58,24.38 L13.23,27.47 L13.41,27.47 L13.59,27.47 L26.43,24.38 C26.7670492,24.2929798 27.0018918,23.9880964 27.0000202,23.64 Z" id="Path" fill="#002E6E" fill-rule="nonzero"></path>
                    <path d="M2.73999481,21.61 C2.73893276,21.8956825 2.90240695,22.1564628 3.16,22.28 L7.59,24.53 L13.09,27.3 C13.1932966,27.3597421 13.3106742,27.3908127 13.43,27.3900155 C13.5476869,27.3874511 13.663524,27.3601953 13.77,27.31 L19.38,24.51 L23.84,22.29 C24.1013948,22.1640087 24.2682347,21.9001688 24.27,21.61 L24.27,6.86 C24.2671128,6.60687905 24.1399997,6.37134598 23.93,6.23 C23.7202957,6.0883878 23.4533215,6.0620664 23.22,6.16 L14.79,9.65 C15.0668311,9.96528424 15.219649,10.3704294 15.22,10.79 C15.2303801,10.9030957 15.2303801,11.0169043 15.22,11.13 L22.75,8 L22.75,21.14 L13.43,25.78 L4.26,21.14 L4.26,8 L11.76,11.15 C11.7496576,11.0268835 11.7496576,10.9031165 11.76,10.78 C11.7613061,10.3701755 11.9064049,9.97380797 12.17,9.66 L3.8,6.16 C3.56476512,6.0643191 3.29748027,6.0907763 3.08556851,6.23071803 C2.87365674,6.37065976 2.74437181,6.60608826 2.73999481,6.86 L2.73999481,21.61 Z" id="Path" fill="#002E6E" fill-rule="nonzero"></path>
                    <path d="M13.5,7.91 C14.9021054,7.92215744 16.172925,7.08690736 16.7179325,5.7950041 C17.26294,4.50310084 16.974368,3.00999952 15.987219,2.01421647 C15.0000699,1.01843342 13.5095381,0.716870287 12.2129378,1.2506071 C10.9163375,1.78434391 10.069985,3.04784194 10.069985,4.45 C10.0644565,6.35149851 11.5985253,7.89898485 13.5,7.91 L13.5,7.91 Z M13.5,2.52 C14.2881809,2.50782017 15.0053704,2.97377144 15.3145371,3.69888763 C15.6237038,4.42400382 15.4633726,5.26410222 14.9088886,5.82439233 C14.3544046,6.38468244 13.5160218,6.55375571 12.7877246,6.25215891 C12.0594273,5.95056212 11.5860308,5.23826503 11.5899752,4.45 C11.5899752,3.39185232 12.4419091,2.53096526 13.5,2.52 Z" id="Shape" fill="#002E6E" fill-rule="nonzero"></path>
                    <path d="M12.61,10.79 C12.6098253,11.0330819 12.7113557,11.2651513 12.89,11.43 L11,21.54 L13.46,24.28 L15.88,21.54 L14.05,11.43 C14.3404888,11.164651 14.4138655,10.7360076 14.2281771,10.389145 C14.0424887,10.0422824 13.6450917,9.86566155 13.2631964,9.9602647 C12.881301,10.0548679 12.6123026,10.3965683 12.61,10.79 L12.61,10.79 Z" id="Path" fill="#00B9F5" fill-rule="nonzero"></path>
                    <polygon id="Path" fill="#002E6E" fill-rule="nonzero" points="0.01 39.23 4.73 39.23 4.73 38.08 1.38 38.08 1.38 35.46 4.51 35.46 4.51 34.32 1.38 34.32 1.38 32.05 4.73 32.05 4.73 30.9 0.01 30.9"></polygon>
                    <path d="M10.39,32.66 C10.4019015,33.0216636 10.4352937,33.3822998 10.49,33.74 L10.42,33.74 C9.99307343,33.1252737 9.27718707,32.7767999 8.53,32.82 C7.80999351,32.7878568 7.11954391,33.1088225 6.68,33.68 C6.19041246,34.3847842 5.95101072,35.2332522 6,36.09 C5.94819007,36.9410106 6.1803276,37.7851471 6.66,38.49 C7.09528843,39.0609403 7.78277779,39.3822669 8.5,39.35 C9.2483953,39.3892159 9.96233556,39.0322458 10.38,38.41 L10.45,38.41 L10.68,39.23 L11.73,39.23 L11.73,30.37 L10.39,30.37 L10.39,32.66 Z M10.46,36.29 C10.4972109,36.8223101 10.3603296,37.3522865 10.07,37.8 C9.76350241,38.1319014 9.31981885,38.3019801 8.87,38.26 C8.42794563,38.2899693 8.00393404,38.0798735 7.76,37.71 C7.48090055,37.2287431 7.35205036,36.6750356 7.39,36.12 C7.35351302,35.5479312 7.48563399,34.9777249 7.77,34.48 C8.0054206,34.1089253 8.42093024,33.8916404 8.86,33.91 C9.32016249,33.8730781 9.77012965,34.0590149 10.07,34.41 C10.3750961,34.9217317 10.5115323,35.5164536 10.46,36.11 L10.46,36.29 Z" id="Shape" fill="#002E6E" fill-rule="nonzero"></path>
                    <path d="M17.81,36.07 C17.8584598,36.6614378 17.7184368,37.2530348 17.41,37.76 C17.1007614,38.1158691 16.639598,38.3018222 16.17,38.26 C15.8211705,38.2891457 15.478289,38.1564173 15.24,37.9 C15.0388591,37.5780341 14.954152,37.1968523 15,36.82 L15,32.93 L13.6,32.93 L13.6,37.05 C13.5480944,37.6783176 13.7497479,38.3012826 14.16,38.78 C14.6298756,39.1927122 15.2464723,39.3982444 15.87,39.35 C16.2768248,39.353383 16.6795001,39.2680705 17.05,39.1 C17.3700298,38.9443785 17.6427422,38.7061867 17.84,38.41 L17.91,38.41 L18.1,39.23 L19.1,39.23 L19.1,32.93 L17.81,32.93 L17.81,36.07 Z" id="Path" fill="#002E6E" fill-rule="nonzero"></path>
                    <path d="M23.7,33.93 C24.1835971,33.9563246 24.6581964,34.0715845 25.1,34.27 L25.5,33.19 C24.9382467,32.9351675 24.3267497,32.8087687 23.71,32.82 C22.8721227,32.7629566 22.0508723,33.0732068 21.46,33.67 C20.9003659,34.3590949 20.6217626,35.234195 20.68,36.12 C20.6207525,36.9826118 20.888521,37.8359007 21.43,38.51 C21.9926123,39.0984884 22.7877922,39.4063 23.6,39.35 C23.9356075,39.3562592 24.2709033,39.3260826 24.6,39.26 C24.8663395,39.191974 25.1220657,39.0876647 25.36,38.95 L25.36,37.79 C24.8435551,38.078756 24.2616885,38.2302479 23.67,38.23 C23.2109161,38.2564359 22.7674518,38.0589266 22.48,37.7 C22.1764922,37.2276241 22.0327644,36.6702406 22.07,36.11 C22.06,34.66 22.61,33.93 23.7,33.93 Z" id="Path" fill="#002E6E" fill-rule="nonzero"></path>
                    <path d="M29.31,32.82 C28.9223903,32.8195707 28.5361854,32.8665869 28.16,32.96 C27.767021,33.0466508 27.3871113,33.1844941 27.03,33.37 L27.47,34.37 C27.7448925,34.2393858 28.0289865,34.1290904 28.32,34.04 C28.6198385,33.9399955 28.9339248,33.8893364 29.25,33.89 C29.5723308,33.8629324 29.891324,33.9716801 30.13,34.19 C30.3332883,34.447939 30.4331214,34.7723965 30.41,35.1 L30.41,35.43 L29.32,35.43 C28.5477364,35.4037761 27.7831513,35.5905978 27.11,35.97 C26.6298529,36.3007237 26.3569445,36.8579117 26.39,37.44 C26.3569329,37.965253 26.545548,38.4803173 26.91,38.86 C27.3076798,39.2127409 27.8294257,39.3926533 28.36,39.36 C28.7669701,39.3737401 29.172315,39.3022086 29.55,39.15 C29.9091214,38.9632046 30.2204778,38.6963277 30.46,38.37 L30.51,38.37 L30.78,39.24 L31.73,39.24 L31.73,35 C31.7849759,34.386275 31.5609758,33.7803732 31.12,33.35 C30.599585,32.9623177 29.9573304,32.7742542 29.31,32.82 L29.31,32.82 Z M30.4,36.82 C30.4243044,37.2231871 30.2793313,37.6182388 30,37.91 C29.6803641,38.1973645 29.2590933,38.3449894 28.83,38.32 C28.5602293,38.3381132 28.2932371,38.2562355 28.08,38.09 C27.9042292,37.9212402 27.8126174,37.6830496 27.83,37.44 C27.804782,37.0961703 27.9698054,36.7661234 28.26,36.58 C28.6839963,36.3542086 29.1599022,36.2438536 29.64,36.26 L30.45,36.26 L30.4,36.82 Z" id="Shape" fill="#002E6E" fill-rule="nonzero"></path>
                    <path d="M35.32,38 C35.136946,37.8112197 35.0456095,37.5518242 35.07,37.29 L35.07,34 L36.87,34 L36.87,33 L35.07,33 L35.07,31.6 L34.25,31.6 L33.79,32.93 L32.87,33.42 L32.87,34 L33.73,34 L33.73,37.39 C33.73,38.73 34.36,39.39 35.63,39.39 C35.8748573,39.3870208 36.1190385,39.3636062 36.36,39.32 C36.5550553,39.2866702 36.746093,39.2330456 36.93,39.16 L36.93,38.16 C36.6062459,38.2606135 36.2690256,38.3111966 35.93,38.31 C35.692217,38.2966854 35.4709263,38.1842262 35.32,38 L35.32,38 Z" id="Path" fill="#002E6E" fill-rule="nonzero"></path>
                    <rect id="Rectangle" fill="#002E6E" fill-rule="nonzero" x="38.19" y="32.93" width="1.34" height="6.3"></rect>
                    <path d="M38.87,30.52 C38.6653177,30.4947905 38.4602544,30.5638313 38.3124973,30.7077 C38.1647403,30.8515687 38.0902567,31.0547184 38.11,31.26 C38.0998561,31.4598009 38.1721556,31.6550096 38.31,31.8 C38.631943,32.0666915 39.098057,32.0666915 39.42,31.8 C39.5542115,31.6533751 39.6228277,31.4583609 39.61,31.26 C39.6244296,31.0584132 39.5557818,30.8596956 39.42,30.71 C39.2697077,30.575229 39.0714324,30.5067339 38.87,30.52 Z" id="Path" fill="#002E6E" fill-rule="nonzero"></path>
                    <path d="M44.07,32.82 C43.2399711,32.7690552 42.4290927,33.0831793 41.85,33.68 C41.2959928,34.3487436 41.0171335,35.2031972 41.07,36.07 C41.0560572,36.666615 41.1792182,37.2584722 41.43,37.8 C41.643038,38.2733011 41.9908664,38.6733037 42.43,38.95 C42.9060352,39.2175538 43.4439556,39.3554821 43.99,39.35 C44.8186029,39.3981121 45.6265557,39.0800492 46.2,38.48 C46.7651605,37.8085936 47.0514667,36.946096 47,36.07 C47.0472536,35.2066229 46.7608372,34.3581143 46.2,33.7 C45.6530859,33.1089592 44.8745974,32.7873301 44.07,32.82 L44.07,32.82 Z M44.07,38.25 C42.99,38.25 42.46,37.53 42.46,36.07 C42.4248558,35.5120124 42.5534546,34.9559094 42.83,34.47 C43.1155503,34.0831627 43.5807404,33.8713688 44.06,33.91 C45.13,33.91 45.66,34.63 45.66,36.07 C45.66,37.51 45.12,38.25 44.06,38.25 L44.07,38.25 Z" id="Shape" fill="#002E6E" fill-rule="nonzero"></path>
                    <path d="M51.85,32.82 C51.447218,32.8142886 51.048006,32.8961782 50.68,33.06 C50.3490937,33.2118179 50.0681721,33.4545897 49.87,33.76 L49.81,33.76 L49.62,32.93 L48.62,32.93 L48.62,39.23 L49.96,39.23 L49.96,36.09 C49.9106838,35.5029638 50.0471116,34.9152745 50.35,34.41 C50.6611575,34.0568324 51.1208938,33.8714548 51.59,33.91 C51.9392689,33.8777541 52.2834735,34.0109946 52.52,34.27 C52.7436808,34.5874064 52.849763,34.9728385 52.82,35.36 L52.82,39.23 L54.16,39.23 L54.16,35.13 C54.2700714,34.4898658 54.0624268,33.8361455 53.6031406,33.3768594 C53.1438545,32.9175732 52.4901342,32.7099286 51.85,32.82 L51.85,32.82 Z" id="Path" fill="#002E6E" fill-rule="nonzero"></path>
                    <path d="M66.23,34.94 L64.85,34.94 C64.7107644,35.5806099 64.4493267,36.1883678 64.08,36.73 L62.08,34.82 C62.5775258,34.5579416 63.0164505,34.1972748 63.37,33.76 C63.618448,33.4168417 63.7515088,33.0036529 63.75,32.58 C63.7707474,32.0769275 63.5564039,31.592807 63.17,31.27 C62.7184519,30.9237971 62.1582034,30.7500491 61.59,30.78 C60.993826,30.7488257 60.4058325,30.9294743 59.93,31.29 C59.5193894,31.6193874 59.289343,32.1240053 59.31,32.65 C59.3118481,32.964032 59.3800021,33.2741328 59.51,33.56 C59.7078452,33.945022 59.9567594,34.3015748 60.25,34.62 C59.7566831,34.8934443 59.3298504,35.2724718 59,35.73 C58.745971,36.1054127 58.6069606,36.5467705 58.6,37 C58.5680671,37.6510587 58.841727,38.2797368 59.34,38.7 C59.9326323,39.1420064 60.6618523,39.3614804 61.4,39.32 C61.8937467,39.3266915 62.3847413,39.2454235 62.85,39.08 C63.2997587,38.9180623 63.7189747,38.6814081 64.09,38.38 L64.94,39.2 L66.67,39.2 L65,37.58 C65.6115338,36.808743 66.0329007,35.9043458 66.23,34.94 Z M60.88,32.08 C61.0848856,31.9199117 61.3402494,31.8383371 61.6,31.85 C61.8392403,31.841976 62.0734221,31.9200366 62.26,32.07 C62.4203123,32.2235542 62.5076021,32.4381416 62.5,32.66 C62.5095943,32.9215733 62.4162476,33.1764815 62.24,33.37 C61.9833587,33.6489725 61.6784713,33.8793319 61.34,34.05 C61.1402632,33.8459264 60.9626134,33.6213502 60.81,33.38 C60.6851481,33.1752015 60.6193893,32.9398542 60.62,32.7 C60.6100155,32.4649272 60.7053306,32.2376373 60.88,32.08 Z M61.47,38.2 C61.0824576,38.2186676 60.7015948,38.0940863 60.4,37.85 C60.1428806,37.6185084 60.0003081,37.2858393 60.01,36.94 C60.0012995,36.6652039 60.0820083,36.3950049 60.24,36.17 C60.4659943,35.8744762 60.7480399,35.626412 61.07,35.44 L63.25,37.59 C62.7472742,37.9970736 62.1167372,38.2131565 61.47,38.2 L61.47,38.2 Z" id="Shape" fill="#002E6E" fill-rule="nonzero"></path>
                    <path d="M74.36,32 C74.6991178,31.9975204 75.0365342,32.0481329 75.36,32.15 C75.6635126,32.248447 75.9607321,32.365331 76.25,32.5 L76.74,31.37 C76.006648,31.0071867 75.1981551,30.8221926 74.38,30.83 C73.6432272,30.8152242 72.915535,30.9945607 72.27,31.35 C71.6698226,31.700095 71.1889534,32.222779 70.89,32.85 C70.5576682,33.5593995 70.396675,34.3369623 70.42,35.12 C70.3475318,36.2642554 70.7040611,37.3944535 71.42,38.29 C72.1415299,39.0584108 73.167957,39.4653158 74.22,39.4 C74.9709716,39.3951564 75.7153857,39.2598084 76.42,39 L76.42,37.81 C76.06,37.92 75.72,38.01 75.42,38.08 C75.090975,38.1475188 74.7558797,38.1810284 74.42,38.18 C73.7090337,38.226462 73.0172222,37.9378989 72.55,37.4 C72.0733028,36.7242749 71.8437745,35.9050353 71.9,35.08 C71.8558316,34.2595127 72.0921095,33.4484093 72.57,32.78 C73.0186509,32.2635587 73.6762822,31.9769931 74.36,32 L74.36,32 Z" id="Path" fill="#002E6E" fill-rule="nonzero"></path>
                    <path d="M80.54,32.82 C80.1524263,32.8201647 79.766293,32.8671722 79.39,32.96 C78.9997536,33.0450801 78.6229436,33.1830195 78.27,33.37 L78.7,34.37 C78.9748925,34.2393858 79.2589865,34.1290904 79.55,34.04 C79.8498385,33.9399955 80.1639248,33.8893364 80.48,33.89 C80.8023308,33.8629324 81.121324,33.9716801 81.36,34.19 C81.5678066,34.4455475 81.6682025,34.7718343 81.64,35.1 L81.64,35.43 L80.55,35.43 C79.7807247,35.401967 79.0188685,35.588968 78.35,35.97 C77.8629351,36.2956399 77.5850853,36.8551457 77.62,37.44 C77.5908236,37.9665459 77.7829637,38.4813364 78.15,38.86 C78.5451753,39.2102243 79.0628161,39.3899606 79.59,39.36 C79.9970539,39.3749405 80.4026471,39.3033652 80.78,39.15 C81.142346,38.9638745 81.4571037,38.6970148 81.7,38.37 L81.7,38.37 L81.97,39.24 L82.97,39.24 L82.97,35 C83.0209552,34.3848911 82.7934166,33.7793449 82.35,33.35 C81.8299899,32.9615064 81.1874271,32.7733526 80.54,32.82 Z M81.63,36.82 C81.6543756,37.2456369 81.4940171,37.6611111 81.19,37.96 C80.8686696,38.2444908 80.4486233,38.3916865 80.02,38.37 C79.746973,38.3896669 79.4763073,38.3077549 79.26,38.14 C79.0887429,37.9682763 78.9979539,37.732225 79.01,37.49 C78.9970701,37.1487128 79.1592123,36.8244284 79.44,36.63 C79.8639963,36.4042086 80.3399022,36.2938536 80.82,36.31 L81.63,36.31 L81.63,36.82 Z" id="Shape" fill="#002E6E" fill-rule="nonzero"></path>
                    <path d="M87,33.15 C86.6581701,33.3753482 86.376655,33.6808951 86.18,34.04 L86.11,34.04 L85.93,32.93 L84.93,32.93 L84.93,39.23 L86.26,39.23 L86.26,35.94 C86.2404734,35.4384171 86.4202269,34.9494874 86.76,34.58 C87.0982301,34.2264789 87.5710091,34.0337305 88.06,34.05 C88.2618915,34.0523829 88.4629821,34.0758435 88.66,34.12 L88.79,32.88 C88.5694705,32.8359896 88.3448403,32.8158735 88.12,32.82 C87.7213728,32.8103944 87.3297345,32.9257878 87,33.15 Z" id="Path" fill="#002E6E" fill-rule="nonzero"></path>
                    <path d="M92.37,32.82 C91.5697981,32.779266 90.7941304,33.1027672 90.26,33.7 C89.7147228,34.3885378 89.4407731,35.2530802 89.49,36.13 C89.441805,36.9957429 89.7404905,37.8450176 90.32,38.49 C90.9323113,39.086254 91.7667026,39.3982438 92.62,39.35 C93.0022329,39.3509912 93.383777,39.3175224 93.76,39.25 C94.1076714,39.1894696 94.4445883,39.078287 94.76,38.92 L94.76,37.83 C94.4388247,37.9788667 94.1039092,38.0960871 93.76,38.18 C93.4313464,38.2510195 93.0962328,38.287882 92.76,38.29 C92.2691215,38.3173008 91.7896034,38.1356652 91.44,37.79 C91.1008206,37.4008494 90.9252458,36.895624 90.95,36.38 L95.15,36.38 L95.15,35.66 C95.1955058,34.8968177 94.9324727,34.1473533 94.42,33.58 C93.8830889,33.035342 93.1322023,32.7569645 92.37,32.82 L92.37,32.82 Z M90.89,35.42 C90.9046691,34.9857978 91.0669273,34.5695703 91.35,34.24 C91.6123865,33.971065 91.9743421,33.8226632 92.35,33.83 C92.7248234,33.8163644 93.08798,33.9616271 93.35,34.23 C93.6110914,34.5699577 93.7422932,34.9919311 93.72,35.42 L90.89,35.42 Z" id="Shape" fill="#002E6E" fill-rule="nonzero"></path>
                    <path d="M99.1,32.82 C98.3032337,32.7823315 97.5318843,33.1055636 97,33.7 C96.4547228,34.3885378 96.1807731,35.2530802 96.23,36.13 C96.1653844,36.98743 96.4421394,37.8356661 97,38.49 C97.6123113,39.086254 98.4467026,39.3982438 99.3,39.35 C99.6855249,39.350472 100.070343,39.3170096 100.45,39.25 C100.796906,39.1864438 101.133402,39.0753999 101.45,38.92 L101.45,37.83 C101.128085,37.9770353 100.793346,38.094194 100.45,38.18 C100.121346,38.2510195 99.7862328,38.287882 99.45,38.29 C98.9621362,38.3169678 98.4858264,38.1351702 98.14,37.79 C97.801665,37.3997666 97.6230968,36.8962044 97.64,36.38 L101.84,36.38 L101.84,35.66 C101.883761,34.8988369 101.62497,34.1512176 101.12,33.58 C100.589317,33.0448272 99.8518398,32.7673604 99.1,32.82 L99.1,32.82 Z M97.61,35.42 C97.6314583,34.9872213 97.7928887,34.5731173 98.07,34.24 C98.3323865,33.971065 98.6943421,33.8226632 99.07,33.83 C99.4450428,33.8150955 99.8086962,33.9605569 100.07,34.23 C100.335175,34.5678273 100.466865,34.9913703 100.44,35.42 L97.61,35.42 Z" id="Shape" fill="#002E6E" fill-rule="nonzero"></path>
                    <path d="M105.42,33.15 C105.07817,33.3753482 104.796655,33.6808951 104.6,34.04 L104.54,34.04 L104.36,32.93 L103.36,32.93 L103.36,39.23 L104.7,39.23 L104.7,35.94 C104.680473,35.4384171 104.860227,34.9494874 105.2,34.58 C105.536744,34.224301 106.010549,34.0311347 106.5,34.05 C106.698554,34.0529307 106.896272,34.0763889 107.09,34.12 L107.22,32.88 C107.002891,32.835687 106.781541,32.8155643 106.56,32.82 C106.155364,32.8121232 105.757859,32.9271905 105.42,33.15 Z" id="Path" fill="#002E6E" fill-rule="nonzero"></path>
                    <path d="M112.4,36.66 C112.27744,36.4265408 112.098744,36.227226 111.88,36.08 C111.524575,35.853227 111.145715,35.6654733 110.75,35.52 C110.325157,35.3838432 109.918749,35.1957537 109.54,34.96 C109.370621,34.8490538 109.266088,34.6623891 109.26,34.46 C109.26,34.06 109.62,33.85 110.32,33.85 C110.915311,33.883641 111.498894,34.0295368 112.04,34.28 L112.47,33.28 C111.810859,32.9796589 111.094332,32.8261174 110.37,32.83 C109.744901,32.7974529 109.124528,32.9542888 108.59,33.28 C108.167331,33.5522226 107.92011,34.0276468 107.94,34.53 C107.923823,34.9331587 108.063482,35.3270696 108.33,35.63 C108.752961,36.0137376 109.254661,36.3004234 109.8,36.47 C110.099392,36.5779444 110.390216,36.7083141 110.67,36.86 C110.839952,36.9398265 110.992781,37.0519016 111.12,37.19 C111.214595,37.3013934 111.264483,37.4439295 111.26,37.59 C111.26,38.08 110.85,38.33 110.02,38.33 C109.30136,38.3107885 108.595313,38.1368349 107.95,37.82 L107.95,39 C108.580415,39.2728372 109.263449,39.4026136 109.95,39.38 C110.626809,39.4209567 111.299135,39.2458718 111.87,38.88 C112.318511,38.5544617 112.570889,38.0233382 112.54,37.47 C112.567083,37.1923208 112.518715,36.9124795 112.4,36.66 L112.4,36.66 Z" id="Path" fill="#002E6E" fill-rule="nonzero"></path>
                </g>
            </g>
        </g>
    </g>
</svg>