<?xml version="1.0" encoding="UTF-8"?>
<svg width="86px" height="81px" viewBox="0 0 86 81" version="1.1" xmlns="http://www.w3.org/2000/svg" xmlns:xlink="http://www.w3.org/1999/xlink">
    <!-- Generator: Sketch 56.3 (81716) - https://sketch.com -->
    <title>Group 30</title>
    <desc>Created with Sketch.</desc>
    <defs>
        <polygon id="path-1" points="0.147071089 0.462 29.3083381 0.462 29.3083381 15.8223 0.147071089 15.8223"></polygon>
    </defs>
    <g id="Page-1" stroke="none" stroke-width="1" fill="none" fill-rule="evenodd">
        <g id="Scroll" transform="translate(-1157.000000, -2348.000000)">
            <g id="Group-39-Copy-3" transform="translate(1054.000000, 2321.000000)">
                <g id="Group-37" transform="translate(103.000000, 27.000000)">
                    <g id="Group-65" transform="translate(0.000000, -0.000000)">
                        <g id="Group-30" transform="translate(0.000000, -0.000000)">
                            <path d="M44.2965783,80.140952 C67.2163954,80.140952 85.3857496,64.4198171 85.3857496,41.5 C85.3857496,18.5801829 62.9197812,-1.42108547e-13 39.9999641,-1.42108547e-13 C17.080147,-1.42108547e-13 5.68434189e-14,12.5198098 5.68434189e-14,35.439627 C5.68434189e-14,58.3594441 21.3767612,80.140952 44.2965783,80.140952 Z" id="Oval" fill="#FFFFFF" opacity="0.0922154018"></path>
                            <g id="Group-6" transform="translate(26.000000, 18.000000)">
                                <path d="M33.522,36.5384 L30.778,36.5384 L30.778,11.8824 C30.778,11.3294 30.33,10.8824 29.778,10.8824 C29.226,10.8824 28.778,11.3294 28.778,11.8824 L28.778,36.5384 L22.433,36.5384 L22.433,15.5714 C22.433,15.0184 21.985,14.5714 21.433,14.5714 C20.881,14.5714 20.433,15.0184 20.433,15.5714 L20.433,36.5384 L14.089,36.5384 L14.089,19.2614 C14.089,18.7084 13.641,18.2614 13.089,18.2614 C12.537,18.2614 12.089,18.7084 12.089,19.2614 L12.089,36.5384 L5.745,36.5384 L5.745,22.9514 C5.745,22.3984 5.297,21.9514 4.745,21.9514 C4.192,21.9514 3.745,22.3984 3.745,22.9514 L3.745,36.5384 L1,36.5384 C0.448,36.5384 0,36.9854 0,37.5384 C0,38.0914 0.448,38.5384 1,38.5384 L33.522,38.5384 C34.074,38.5384 34.522,38.0914 34.522,37.5384 C34.522,36.9854 34.074,36.5384 33.522,36.5384" id="Fill-1" fill="#002C70"></path>
                                <g id="Group-5" transform="translate(1.000000, 0.538400)">
                                    <mask id="mask-2" fill="white">
                                        <use xlink:href="#path-1"></use>
                                    </mask>
                                    <g id="Clip-4"></g>
                                    <path d="M1.1484,15.8223 C1.3344,15.8223 1.5214,15.7703 1.6884,15.6633 L12.6914,8.5813 L15.0584,12.4353 C15.2054,12.6763 15.4474,12.8423 15.7244,12.8943 C16.0004,12.9473 16.2874,12.8813 16.5114,12.7113 L26.6914,5.0413 L25.8964,8.5153 C25.7734,9.0533 26.1094,9.5903 26.6484,9.7133 C26.7234,9.7303 26.7984,9.7383 26.8724,9.7383 C27.3284,9.7383 27.7394,9.4253 27.8454,8.9613 L29.2834,2.6773 C29.3444,2.4093 29.2924,2.1273 29.1394,1.8983 C28.9854,1.6693 28.7444,1.5133 28.4724,1.4683 L22.4824,0.4763 C21.9334,0.3813 21.4224,0.7553 21.3324,1.3003 C21.2424,1.8443 21.6104,2.3593 22.1554,2.4493 L25.9694,3.0813 L16.1874,10.4513 L13.8614,6.6643 C13.7204,6.4353 13.4934,6.2723 13.2314,6.2133 C12.9714,6.1523 12.6944,6.2023 12.4684,6.3463 L0.6064,13.9813 C0.1414,14.2803 0.0074,14.8993 0.3064,15.3633 C0.4974,15.6603 0.8194,15.8223 1.1484,15.8223" id="Fill-3" fill="#00B7F3" mask="url(#mask-2)"></path>
                                </g>
                            </g>
                        </g>
                    </g>
                </g>
            </g>
        </g>
    </g>
</svg>