<?xml version="1.0" encoding="UTF-8"?>
<svg width="86px" height="81px" viewBox="0 0 86 81" version="1.1" xmlns="http://www.w3.org/2000/svg" xmlns:xlink="http://www.w3.org/1999/xlink">
    <!-- Generator: Sketch 56.3 (81716) - https://sketch.com -->
    <title>learn</title>
    <desc>Created with Sketch.</desc>
    <defs>
        <polygon id="path-1" points="0.2783518 0.6563 9.1804 0.6563 9.1804 13 0.2783518 13"></polygon>
        <polygon id="path-3" points="0.0796 0.6563 9.08195991 0.6563 9.08195991 13 0.0796 13"></polygon>
        <polygon id="path-5" points="0.0002 0.4623 38.429 0.4623 38.429 25.6563 0.0002 25.6563"></polygon>
    </defs>
    <g id="Page-1" stroke="none" stroke-width="1" fill="none" fill-rule="evenodd">
        <g id="Scroll" transform="translate(-515.000000, -2348.000000)">
            <g id="Group-39-Copy" transform="translate(412.000000, 2321.000000)">
                <g id="learn" transform="translate(103.000000, 27.000000)">
                    <g id="Group-44" transform="translate(0.000000, -0.000000)">
                        <path d="M44.2965783,80.140952 C67.2163954,80.140952 85.3857496,64.4198171 85.3857496,41.5 C85.3857496,18.5801829 62.9197812,-1.42108547e-13 39.9999641,-1.42108547e-13 C17.080147,-1.42108547e-13 5.68434189e-14,12.5198098 5.68434189e-14,35.439627 C5.68434189e-14,58.3594441 21.3767612,80.140952 44.2965783,80.140952 Z" id="Oval" fill="#FFFFFF" opacity="0.0922154018"></path>
                        <g id="Group-26" transform="translate(23.000000, 22.000000)">
                            <g id="Group-3" transform="translate(10.000000, 25.538100)">
                                <mask id="mask-2" fill="white">
                                    <use xlink:href="#path-1"></use>
                                </mask>
                                <g id="Clip-2"></g>
                                <path d="M7.5034,0.6563 L0.3954,11.8473 C0.1734,12.1973 0.2764,12.6613 0.6264,12.8833 C0.7514,12.9623 0.8904,13.0003 1.0284,13.0003 C1.2764,13.0003 1.5194,12.8773 1.6624,12.6523 L9.1804,0.8143 L9.0794,0.6563 L7.5034,0.6563 Z" id="Fill-1" fill="#002C70" mask="url(#mask-2)"></path>
                            </g>
                            <g id="Group-6" transform="translate(19.000000, 25.538100)">
                                <mask id="mask-4" fill="white">
                                    <use xlink:href="#path-3"></use>
                                </mask>
                                <g id="Clip-5"></g>
                                <path d="M0.0796,0.6563 L0.1806,0.8143 L7.6986,12.6523 C7.8416,12.8773 8.0846,13.0003 8.3326,13.0003 C8.4706,13.0003 8.6096,12.9623 8.7346,12.8833 C9.0836,12.6613 9.1866,12.1973 8.9656,11.8473 L1.8576,0.6563 L0.0796,0.6563 Z" id="Fill-4" fill="#002C70" mask="url(#mask-4)"></path>
                            </g>
                            <path d="M26.6196,20.1836 C25.2626,20.1836 24.1596,19.1216 24.1596,17.8176 C24.1596,16.5116 25.2626,15.4506 26.6196,15.4506 C27.9756,15.4506 29.0796,16.5116 29.0796,17.8176 C29.0796,19.1216 27.9756,20.1836 26.6196,20.1836 M15.5296,21.5496 C15.4966,21.5536 15.4646,21.5556 15.4316,21.5556 C15.0606,21.5556 14.7386,21.2806 14.6896,20.9026 C14.3876,18.5646 15.4276,16.0886 17.3396,14.5936 C17.8786,14.1726 18.4626,13.8366 19.0286,13.5116 C19.5526,13.2106 20.0486,12.9266 20.4916,12.5876 C22.0086,11.4286 22.8636,9.5246 22.7506,7.6906 L22.1526,8.2316 C22.0096,8.3616 21.8286,8.4256 21.6496,8.4256 C21.4456,8.4256 21.2416,8.3426 21.0936,8.1786 C20.8156,7.8716 20.8386,7.3976 21.1456,7.1206 L22.8486,5.5796 C23.1236,5.3296 23.5406,5.3176 23.8276,5.5556 L25.5026,6.9316 C25.8226,7.1946 25.8686,7.6666 25.6056,7.9876 C25.3426,8.3056 24.8706,8.3546 24.5506,8.0896 L24.2626,7.8536 C24.3236,10.1106 23.2706,12.3516 21.4026,13.7796 C20.8806,14.1776 20.3186,14.5006 19.7756,14.8126 C19.2316,15.1246 18.7176,15.4196 18.2636,15.7756 C16.7606,16.9506 15.9416,18.8876 16.1766,20.7086 C16.2296,21.1206 15.9396,21.4956 15.5296,21.5496 M10.4266,10.5496 L12.2166,8.8576 L11.3296,8.0186 C11.0286,7.7346 11.0156,7.2596 11.2996,6.9576 C11.5846,6.6586 12.0586,6.6456 12.3596,6.9286 L13.3076,7.8256 L15.0126,6.2136 C15.3136,5.9306 15.7876,5.9436 16.0726,6.2436 C16.3576,6.5446 16.3446,7.0196 16.0426,7.3036 L14.3996,8.8566 L16.1856,10.5446 C16.4866,10.8296 16.4996,11.3036 16.2156,11.6056 C16.0676,11.7606 15.8696,11.8396 15.6706,11.8396 C15.4856,11.8396 15.3006,11.7716 15.1556,11.6346 L13.3076,9.8886 L11.4566,11.6396 C11.3116,11.7766 11.1266,11.8446 10.9416,11.8446 C10.7426,11.8446 10.5436,11.7656 10.3966,11.6106 C10.1116,11.3086 10.1246,10.8336 10.4266,10.5496 M35.1336,2.4996 L3.2946,2.4996 C2.3056,2.4996 1.4996,3.3056 1.4996,4.2946 L1.4996,22.8996 C1.4996,23.8886 2.3056,24.6946 3.2946,24.6946 L35.1336,24.6946 C36.1236,24.6946 36.9296,23.8886 36.9296,22.8996 L36.9296,4.2946 C36.9296,3.3056 36.1236,2.4996 35.1336,2.4996" id="Fill-7" fill="#FFFFFF"></path>
                            <path d="M26.6196,16.9502 C26.0896,16.9502 25.6596,17.3392 25.6596,17.8172 C25.6596,18.2952 26.0896,18.6832 26.6196,18.6832 C27.1486,18.6832 27.5796,18.2952 27.5796,17.8172 C27.5796,17.3392 27.1486,16.9502 26.6196,16.9502" id="Fill-9" fill="#FFFFFF"></path>
                            <g id="Group-13" transform="translate(0.000000, 0.538100)">
                                <mask id="mask-6" fill="white">
                                    <use xlink:href="#path-5"></use>
                                </mask>
                                <g id="Clip-12"></g>
                                <path d="M36.9292,22.3613 C36.9292,23.3503 36.1242,24.1563 35.1342,24.1563 L3.2952,24.1563 C2.3052,24.1563 1.5002,23.3503 1.5002,22.3613 L1.5002,3.7573 C1.5002,2.7673 2.3052,1.9623 3.2952,1.9623 L35.1342,1.9623 C36.1242,1.9623 36.9292,2.7673 36.9292,3.7573 L36.9292,22.3613 Z M35.1342,0.4623 L3.2952,0.4623 C1.4782,0.4623 0.0002,1.9403 0.0002,3.7573 L0.0002,22.3613 C0.0002,24.1773 1.4782,25.6563 3.2952,25.6563 L17.5032,25.6563 L19.0792,25.6563 L20.8572,25.6563 L35.1342,25.6563 C36.9502,25.6563 38.4292,24.1773 38.4292,22.3613 L38.4292,3.7573 C38.4292,1.9403 36.9502,0.4623 35.1342,0.4623 L35.1342,0.4623 Z" id="Fill-11" fill="#002C70" mask="url(#mask-6)"></path>
                            </g>
                            <path d="M16.1768,20.709 C15.9418,18.888 16.7598,16.95 18.2628,15.775 C18.7178,15.42 19.2318,15.125 19.7758,14.813 C20.3188,14.501 20.8808,14.178 21.4028,13.779 C23.2708,12.352 24.3238,10.11 24.2628,7.854 L23.3758,7.125 L22.7508,7.69 C22.8638,9.524 22.0088,11.429 20.4908,12.588 C20.0488,12.927 19.5528,13.211 19.0288,13.512 C18.4628,13.837 17.8788,14.173 17.3398,14.594 C15.4268,16.089 14.3868,18.564 14.6898,20.902 C14.7388,21.28 15.0608,21.556 15.4318,21.556 C15.4648,21.556 15.4968,21.554 15.5298,21.55 C15.9398,21.496 16.2298,21.12 16.1768,20.709" id="Fill-14" fill="#002874"></path>
                            <path d="M24.2627,7.8535 L24.5507,8.0895 C24.8707,8.3545 25.3427,8.3055 25.6057,7.9875 C25.8687,7.6665 25.8227,7.1945 25.5027,6.9315 L23.8277,5.5555 C23.5407,5.3175 23.1237,5.3295 22.8487,5.5795 L21.1457,7.1205 C20.8387,7.3975 20.8157,7.8725 21.0937,8.1785 C21.2417,8.3425 21.4457,8.4255 21.6497,8.4255 C21.8287,8.4255 22.0097,8.3615 22.1527,8.2315 L22.7507,7.6905 L23.3757,7.1245 L24.2627,7.8535 Z" id="Fill-16" fill="#002874"></path>
                            <path d="M12.3599,6.9287 C12.0589,6.6457 11.5849,6.6577 11.2999,6.9577 C11.0149,7.2597 11.0279,7.7347 11.3299,8.0187 L12.2169,8.8577 L13.3079,7.8247 L12.3599,6.9287 Z" id="Fill-18" fill="#00B7F3"></path>
                            <path d="M15.1553,11.6348 C15.3003,11.7718 15.4853,11.8398 15.6703,11.8398 C15.8693,11.8398 16.0683,11.7608 16.2153,11.6058 C16.5003,11.3038 16.4873,10.8288 16.1853,10.5448 L14.4003,8.8568 L13.3083,9.8888 L15.1553,11.6348 Z" id="Fill-20" fill="#00B7F3"></path>
                            <path d="M10.9414,11.8447 C11.1264,11.8447 11.3114,11.7767 11.4564,11.6397 L13.3084,9.8887 L14.3994,8.8567 L16.0434,7.3037 C16.3444,7.0197 16.3574,6.5447 16.0724,6.2427 C15.7884,5.9437 15.3134,5.9307 15.0124,6.2137 L13.3084,7.8247 L12.2164,8.8577 L10.4264,10.5497 C10.1254,10.8337 10.1114,11.3087 10.3964,11.6107 C10.5444,11.7657 10.7424,11.8447 10.9414,11.8447" id="Fill-22" fill="#00B7F3"></path>
                            <path d="M26.6196,18.6836 C26.0896,18.6836 25.6596,18.2946 25.6596,17.8176 C25.6596,17.3386 26.0896,16.9506 26.6196,16.9506 C27.1486,16.9506 27.5796,17.3386 27.5796,17.8176 C27.5796,18.2946 27.1486,18.6836 26.6196,18.6836 M26.6196,15.4506 C25.2626,15.4506 24.1596,16.5116 24.1596,17.8176 C24.1596,19.1216 25.2626,20.1836 26.6196,20.1836 C27.9756,20.1836 29.0796,19.1216 29.0796,17.8176 C29.0796,16.5116 27.9756,15.4506 26.6196,15.4506" id="Fill-24" fill="#00B7F3"></path>
                        </g>
                    </g>
                </g>
            </g>
        </g>
    </g>
</svg>