<svg width="211" height="50" viewBox="0 0 211 50" xmlns="http://www.w3.org/2000/svg"><title>de.logos.com</title><g fill="none" fill-rule="evenodd"><path d="M2.226 45.044l2.786 2.84 27.934-8.47 7.364-2.868 1.936-13.726-3.077-8.367-13.554-7.64-12.343 5.875-4.184 9.82.103 9.3-6.967 13.236" fill="#FFF"/><path d="M38.283-.096H12.07C5.446-.096.027 5.324.027 11.946V38.16c0 2.545.682 4.777 2.044 6.727.07.1.198.266.368.14l1.04-.938 8.864-8.71.16-.16.136-.136c.268-.247.254-.47.103-.68-.052-.073-.107-.145-.16-.22-1.86-2.567-2.89-5.788-2.89-9.194 0-8.608 7.004-15.613 15.613-15.613 8.607 0 15.612 7.005 15.612 15.613 0 8.61-7.005 15.612-15.612 15.612-3.49 0-6.8-1.07-9.402-3.012-.094-.07-.257-.2-.354-.265-.154-.1-.348-.15-.64.153l-.277.278-8.99 9.157-.468.54c-.193.23-.31.33-.09.516.062.05-.026-.02.038.025 1.99 1.45 4.315 2.206 6.95 2.206h26.213c6.623 0 12.042-5.418 12.042-12.04V11.945c0-6.623-5.42-12.042-12.042-12.042" fill="#005EC4"/><path d="M37.604 24.99c0-6.783-5.518-12.302-12.3-12.302C18.52 12.688 13 18.208 13 24.99s5.518 12.3 12.3 12.3c6.784 0 12.302-5.518 12.302-12.3zm-18.064-.044v-3.313h4.107v-4.106h3.31v4.106h4.11v3.313h-4.11v7.508h-3.31v-7.508H19.54zM99.23 43.39c-10.252 0-16.15-7.788-16.15-18.28 0-10.543 6.236-18.327 16.487-18.327 10.252 0 16.15 7.784 16.15 18.327 0 10.492-6.236 18.28-16.488 18.28zm.19-31.192c-6.767 0-9.86 5.513-9.86 12.912 0 7.35 3.093 12.91 9.86 12.91 6.724 0 9.817-5.56 9.817-12.91 0-7.4-3.093-12.912-9.816-12.912zM169.768 43.39c-10.25 0-16.148-7.788-16.148-18.28 0-10.543 6.236-18.327 16.487-18.327 10.253 0 16.15 7.784 16.15 18.327 0 10.492-6.236 18.28-16.49 18.28zm.194-31.192c-6.768 0-9.862 5.513-9.862 12.912 0 7.35 3.094 12.91 9.862 12.91 6.722 0 9.816-5.56 9.816-12.91 0-7.4-3.094-12.912-9.816-12.912zM82.345 37.297H66.9V7.363h-6.044V42.81h20.012l1.477-5.513M147.964 9.73c-3.25-1.807-6.7-2.947-11.327-2.947-9.96 0-17.213 7.3-17.213 18.327 0 10.928 7.106 18.278 17.213 18.278 5.32 0 9.43-1.402 13.202-3.868V23.455h-12.464l-1.426 5.32h8.087v7.554c-2.08 1.16-4.11 1.69-7.157 1.69-7.013 0-10.976-5.367-10.976-12.91 0-7.06 2.948-12.766 11.024-12.766 3.288 0 6.478.86 9.575 2.46l1.46-5.073M201.622 22.256c-4.4-1.935-6.14-3.336-6.14-5.707 0-2.37 1.984-4.644 5.706-4.644 2.334 0 4.763.873 6.868 1.733l1.392-4.625c-2.098-1.25-5.2-2.232-8.358-2.232-7.397 0-11.654 4.786-11.654 9.912 0 4.255 2.225 7.448 8.414 10.058 5.61 2.37 6.674 3.917 6.674 6.383s-1.655 4.352-5.368 4.644c-2.404.188-5.784-.778-9.254-2.59l-1.415 5.106c2.998 1.82 6.73 3.092 10.476 3.092 7.303 0 11.702-4.884 11.702-10.59 0-4.642-2.03-7.495-9.043-10.542" fill="#005EC4"/></g></svg>