<?xml version="1.0" encoding="UTF-8"?>
<svg width="86px" height="81px" viewBox="0 0 86 81" version="1.1" xmlns="http://www.w3.org/2000/svg" xmlns:xlink="http://www.w3.org/1999/xlink">
    <!-- Generator: Sketch 56.3 (81716) - https://sketch.com -->
    <title>Group 37</title>
    <desc>Created with Sketch.</desc>
    <defs>
        <polygon id="path-1" points="0.0002 0.31 31.486 0.31 31.486 37 0.0002 37"></polygon>
    </defs>
    <g id="Page-1" stroke="none" stroke-width="1" fill="none" fill-rule="evenodd">
        <g id="Scroll" transform="translate(-835.000000, -2348.000000)">
            <g id="Group-39-Copy-2" transform="translate(732.000000, 2321.000000)">
                <g id="Group-37" transform="translate(103.000000, 27.000000)">
                    <g id="Group-66" transform="translate(0.000000, -0.000000)">
                        <path d="M44.2965783,80.140952 C67.2163954,80.140952 85.3857496,64.4198171 85.3857496,41.5 C85.3857496,18.5801829 62.9197812,-1.13686838e-13 39.9999641,-1.13686838e-13 C17.080147,-1.13686838e-13 0,12.5198098 0,35.439627 C0,58.3594441 21.3767612,80.140952 44.2965783,80.140952 Z" id="Oval" fill="#FFFFFF" opacity="0.0922154018"></path>
                        <g id="Group-10" transform="translate(27.000000, 19.000000)">
                            <path d="M12.0703,17.0654 C13.1843,17.6914 14.4573,18.0224 15.7513,18.0224 C17.0753,18.0224 18.3203,17.7004 19.4503,17.0654 C21.8113,15.7234 23.2803,13.2114 23.2803,10.5114 C23.2803,6.3704 19.9033,3.0004 15.7513,3.0004 C11.6103,3.0004 8.2403,6.3704 8.2403,10.5114 C8.2403,13.2094 9.7073,15.7194 12.0703,17.0654" id="Fill-1" fill="#FFFFFF"></path>
                            <path d="M16.0103,34.7461 L13.4883,32.3721 L15.1163,23.3191 C14.7523,23.0421 14.5123,22.6081 14.5123,22.1141 C14.5123,21.2751 15.1933,20.5961 16.0313,20.5961 C16.8703,20.5961 17.5503,21.2751 17.5503,22.1141 C17.5503,22.5791 17.3373,22.9901 17.0083,23.2681 L18.6453,32.3721 L16.0103,34.7461 Z M20.0683,19.0021 C17.4293,20.3361 14.1063,20.3431 11.4493,19.0011 C5.8673,20.4801 2.0003,25.4991 2.0003,31.3321 L2.0003,35.6901 L29.4863,35.6901 L29.4863,31.3321 C29.4863,25.5181 25.6323,20.5001 20.0683,19.0021 L20.0683,19.0021 Z" id="Fill-3" fill="#FFFFFF"></path>
                            <g id="Group-7" transform="translate(0.000000, 0.690400)">
                                <mask id="mask-2" fill="white">
                                    <use xlink:href="#path-1"></use>
                                </mask>
                                <g id="Clip-6"></g>
                                <path d="M8.2402,9.8213 C8.2402,5.6793 11.6102,2.3093 15.7512,2.3093 C19.9032,2.3093 23.2812,5.6793 23.2812,9.8213 C23.2812,12.5203 21.8112,15.0333 19.4502,16.3753 C18.3202,17.0093 17.0752,17.3323 15.7512,17.3323 C14.4572,17.3323 13.1842,17.0013 12.0702,16.3753 C9.7072,15.0293 8.2402,12.5183 8.2402,9.8213 L8.2402,9.8213 Z M29.4862,35.0003 L2.0002,35.0003 L2.0002,30.6413 C2.0002,24.8083 5.8672,19.7903 11.4492,18.3103 C14.1062,19.6523 17.4292,19.6453 20.0682,18.3113 C25.6322,19.8093 29.4862,24.8283 29.4862,30.6413 L29.4862,35.0003 Z M22.1022,16.8883 C24.0902,15.0973 25.2812,12.5413 25.2812,9.8213 C25.2812,4.5763 21.0062,0.3093 15.7512,0.3093 C10.5072,0.3093 6.2402,4.5763 6.2402,9.8213 C6.2402,12.5383 7.4282,15.0903 9.4132,16.8833 C3.7852,19.0483 0.0002,24.4413 0.0002,30.6413 L0.0002,36.0003 C0.0002,36.5523 0.4482,37.0003 1.0002,37.0003 L30.4862,37.0003 C31.0382,37.0003 31.4862,36.5523 31.4862,36.0003 L31.4862,30.6413 C31.4862,24.4613 27.7112,19.0683 22.1022,16.8883 L22.1022,16.8883 Z" id="Fill-5" fill="#002C70" mask="url(#mask-2)"></path>
                            </g>
                            <path d="M17.5503,22.1142 C17.5503,21.2752 16.8703,20.5952 16.0313,20.5952 C15.1933,20.5952 14.5123,21.2752 14.5123,22.1142 C14.5123,22.6082 14.7523,23.0422 15.1163,23.3192 L13.4883,32.3722 L16.0103,34.7462 L18.6453,32.3722 L17.0083,23.2682 C17.3373,22.9902 17.5503,22.5792 17.5503,22.1142" id="Fill-8" fill="#00B7F7"></path>
                        </g>
                    </g>
                </g>
            </g>
        </g>
    </g>
</svg>